<svg xmlns="http://www.w3.org/2000/svg" viewBox="0 0 240 240">
<rect width="240" height="240" rx="20" fill="#f5f5f7"/>
<path d="M48 150c0-8 6-14 14-16l30-8c6-2 12-6 16-11l8-10c3-4 9-4 12 0 8 10 22 17 35 19l16 2c10 2 17 10 17 20v10a8 8 0 0 1-8 8H56a8 8 0 0 1-8-8z" fill="none" stroke="#1d1d1f" stroke-width="7" stroke-linejoin="round"/>
<path d="M48 150c30 8 114 8 148 4" fill="none" stroke="#1d1d1f" stroke-width="5" stroke-linecap="round" opacity="0.3"/>
<circle cx="118" cy="112" r="6" fill="#86868b"/>
</svg>